<?xml version="1.0" encoding="utf-8"?>
<!-- Generator: Adobe Illustrator 16.0.0, SVG Export Plug-In . SVG Version: 6.00 Build 0)  -->
<!DOCTYPE svg PUBLIC "-//W3C//DTD SVG 1.1//EN" "http://www.w3.org/Graphics/SVG/1.1/DTD/svg11.dtd">
<svg version="1.1" xmlns="http://www.w3.org/2000/svg" xmlns:xlink="http://www.w3.org/1999/xlink" x="0px" y="0px" width="608px"
	 height="530.204px" viewBox="0 0 608 530.204" enable-background="new 0 0 608 530.204" xml:space="preserve">
<g id="test_header_space" display="none">
</g>
<g id="Footer_1_">
</g>
<g id="PAGES_x2F_Content">
</g>
<g id="Header">
</g>
<g id="_x31_200Grid_x26_Guides" display="none">
	<g display="inline" opacity="0.3">
		<path fill-rule="evenodd" clip-rule="evenodd" fill="#F2DCDD" d="M39.629,3843c-20,0-40,0-60,0c0-2239.001,0-4477.998,0-6716.999
			c20,0,40,0,60,0C39.629-634.998,39.629,1603.999,39.629,3843z"/>
		<path fill-rule="evenodd" clip-rule="evenodd" fill="#F2DCDD" d="M119.629,3843c-20,0-40,0-60,0c0-2239.001,0-4477.998,0-6716.999
			c20,0,40,0,60,0C119.629-634.998,119.629,1603.999,119.629,3843z"/>
		<path fill-rule="evenodd" clip-rule="evenodd" fill="#F2DCDD" d="M199.629,3843c-20,0-40,0-60,0c0-2239.001,0-4477.998,0-6716.999
			c20,0,40,0,60,0C199.629-634.998,199.629,1603.999,199.629,3843z"/>
		<path fill-rule="evenodd" clip-rule="evenodd" fill="#F2DCDD" d="M219.629-2873.999c20,0,40,0,60,0c0,2239,0,4477.998,0,6716.999
			c-20,0-40,0-60,0C219.629,1603.999,219.629-634.998,219.629-2873.999z"/>
		<path fill-rule="evenodd" clip-rule="evenodd" fill="#F2DCDD" d="M359.629,3843c-20,0-40,0-60,0c0-2239.001,0-4477.998,0-6716.999
			c20,0,40,0,60,0C359.629-634.998,359.629,1603.999,359.629,3843z"/>
		<path fill-rule="evenodd" clip-rule="evenodd" fill="#F2DCDD" d="M379.629-2873.999c20,0,40,0,60,0c0,2239,0,4477.998,0,6716.999
			c-20,0-40,0-60,0C379.629,1603.999,379.629-634.998,379.629-2873.999z"/>
		<path fill-rule="evenodd" clip-rule="evenodd" fill="#F2DCDD" d="M459.629-2873.999c20,0,40,0,60,0c0,2239,0,4477.998,0,6716.999
			c-20,0-40,0-60,0C459.629,1603.999,459.629-634.998,459.629-2873.999z"/>
		<path fill-rule="evenodd" clip-rule="evenodd" fill="#F2DCDD" d="M539.629-2873.999c20,0,40,0,60,0c0,2239,0,4477.998,0,6716.999
			c-20,0-40,0-60,0C539.629,1603.999,539.629-634.998,539.629-2873.999z"/>
	</g>
</g>
<g id="Styleguide">
	<g>
		<path fill="#313B57" d="M498.602,403.029c0.871,2.138,1.589,5.971,1.826,5.971H470.42l11.137-3.42l-20.686-45.745l-0.023,0.542
			L457.277,337h21.237l0.071-0.726L498.602,403.029z"/>
		<path fill="#B3DF00" d="M470.423,410.154l-0.995,0.43c-1.283,0.644-2.095,1.957-2.095,3.392c0,2.168,1.81,3.891,3.972,3.79h29.217
			v-5.723c0-0.63-0.039-1.261-0.094-1.889H470.423z"/>
		<g>
			<path fill="#D3D3D3" d="M585.021,198.224h-32.813c-6.445,0-11.799,4.977-12.271,11.407l-5.482,82.413h-43.66
				c-4.877,0-8.824,3.954-8.824,8.827v42.62l0,0c0,5.664,4.594,10.254,10.256,10.245l50.708-0.062
				c21.952,0,40.187-16.929,41.817-38.82l12.545-103.407C597.829,204.309,592.181,198.224,585.021,198.224z"/>
			<g>
				<rect x="524.754" y="353.673" fill="#D3D3D3" width="11.095" height="60.288"/>
				<path fill="#D3D3D3" d="M535.849,402.866l31.533,4.508c4.185,0.596,7.292,4.188,7.292,8.417c0,0.008,0,0.013,0,0.02
					c0,4.044-3.246,7.331-7.276,7.395c-3.208,0.049-5.978-1.999-7.084-5.009c-0.558-1.514-0.526-2.934-0.189-4.235h-24.278v-11.095
					H535.849z"/>
				<path fill="#D3D3D3" d="M524.754,402.866l-31.536,4.508c-4.185,0.596-7.294,4.188-7.294,8.417c0,0.008,0,0.016,0,0.02
					c0,4.044,3.25,7.331,7.279,7.395c3.207,0.049,5.979-1.999,7.082-5.009c0.554-1.514,0.523-2.934,0.19-4.235h24.278V402.866
					L524.754,402.866z"/>
			</g>
		</g>
		<g>
			<path fill="#B3DF00" d="M433.016,415.332c-1.731,0.578-2.979,2.204-2.896,4.028c0.104,2.182,1.889,3.845,4.014,3.845h33.762
				l-0.449-7.886h-34.379L433.016,415.332z"/>
			<path fill="#313B57" d="M566.361,319H473.66l4.854,18h-21.237l3.57,26.711l0.023-0.025l-0.023-0.166l-17.594-44.299
				c-2.067-3.436-2.984-7.107-2.752-10.983c0.625-0.266,1.248-0.501,1.895-0.682c0.636-0.172,1.297-0.325,1.957-0.437
				c0.332-0.049,0.672-0.1,1.002-0.136c0.685-0.073,1.357-0.034,2.057-0.058c0.34-0.013,0.684,0.075,1.038,0.075h122.474
				C569.921,311,568.366,314,566.361,319z"/>
			<path fill="#313B57" d="M444.354,307.114c-0.66,0.11-1.321,0.256-1.957,0.429c0.318-0.098,0.647-0.172,0.967-0.246
				C443.693,307.223,444.021,307.162,444.354,307.114z"/>
			<path fill="#313B57" d="M467.436,415.501L467.45,416h-34.382l0.93-0.499l14.549-5.093l-19.133-78.148
				c-0.602-1.932-0.906-3.997-0.906-6.003c0-2.603,0.512-5.244,1.527-7.688c2.029-4.855,5.834-8.344,10.467-10.361
				c0.625-0.27,1.248-0.491,1.895-0.664c-0.646,0.183-1.27,0.401-1.895,0.67c-0.232,3.876,0.685,7.519,2.752,10.955l17.594,44.247
				l0.023,0.062l6.396,48.875L467.436,415.501z"/>
			<path fill="#313B57" d="M566.361,319c-5.991,9-16.08,18-28.67,18h-59.177l-4.854-18H566.361z"/>
		</g>
		<path fill="#B3DF00" d="M577.599,217.454L572,259.551V289h-47v-3.578l-0.243,2.457l0.659-36.604l-7.047-2.666
			c-8.951-3.387-13.554-14.636-10.766-23.782L515.487,198h45.704C571.314,198,578.882,207.416,577.599,217.454z"/>
		<g>
			<path fill="#FFBE99" d="M518.773,132.804L518.773,132.804c-9.016,3.015-14.463,12.173-12.811,21.533l1.385,6.503l-1.637,9.352
				l4.131-0.754l2.055,7.636c1.124,5.144,6.316,6.85,11.409,5.523l2.644-0.886l1.623,16.513h24.637l-7.236-51.692
				C542.168,135.78,529.311,129.279,518.773,132.804z"/>
			<path fill="#313B57" d="M548.126,170.227l-3.107-24.595c-2.84-10.872-15.645-17.162-26.3-13.595l0,0
				c-6.063,1.5-12.214,8.872-12.274,13.578C516.237,152.634,534.942,161.493,548.126,170.227z"/>
			<path fill="#313B57" d="M526.245,134.925l12.091-4.328c7.485-2.684,12.854,2.59,15.78,9.984l11.608,36.408l0.303,0.852
				c-6.994,0.066-13.331-4.127-16.006-10.59l-7.404-33.139l-14.162,5.577L526.245,134.925z"/>
			<path fill="#313B57" d="M518.384,157.067c1.507-0.394,3.046,0.509,3.435,2.014c0.396,1.509-0.502,3.052-2.012,3.444
				c-1.508,0.395-3.049-0.508-3.441-2.013C515.971,159.001,516.87,157.461,518.384,157.067z"/>
			<path fill="#313B57" d="M513.265,175.236l-0.825,0.078c-0.446,0.042-0.832-0.284-0.88-0.727c-0.04-0.439,0.286-0.832,0.729-0.875
				l0.826-0.076c1.07-0.103,2.039-0.614,2.726-1.446c0.286-0.344,0.794-0.39,1.135-0.106c0.344,0.284,0.394,0.795,0.106,1.134
				C516.123,174.377,514.764,175.096,513.265,175.236z"/>
		</g>
		<g>
			<path fill="#D3D3D3" d="M25.721,202.832h31.273c6.145,0,12.08,4.744,12.531,10.872l5.224,78.001h41.614
				c4.649,0,8.418,3.766,8.418,8.415v40.625l0,0c0,5.398-4.381,9.772-9.781,9.766H66.67c-20.926,0-38.31-16.198-39.861-37.064
				l-11.958-98.014C14.343,208.63,18.9,202.832,25.721,202.832z"/>
			<g>
				<rect x="74.104" y="350.511" fill="#D3D3D3" width="10.574" height="57.405"/>
				<path fill="#D3D3D3" d="M84.679,397.343l30.058,4.293c3.988,0.57,6.953,3.992,6.953,8.025c0,0.006,0,0.012,0,0.017
					c0,3.858-3.095,6.988-6.936,7.05c-3.058,0.049-5.699-1.905-6.753-4.775c-0.53-1.44-0.501-2.797-0.181-4.034H84.679V397.343z"/>
				<path fill="#D3D3D3" d="M74.104,397.343l-30.06,4.293c-3.986,0.57-6.949,3.992-6.949,8.025c0,0.006,0,0.012,0,0.017
					c0,3.858,3.093,6.988,6.936,7.05c3.055,0.049,5.697-1.905,6.75-4.775c0.53-1.44,0.498-2.797,0.18-4.034h23.144V397.343z"/>
			</g>
		</g>
		<g>
			<path fill="#B3DF00" d="M115.855,387.818l11.953,30.097c0.799,1.996,2.727,3.309,4.876,3.309l0,0
				c3.085,0,5.497-2.643,5.229-5.711l-1.699-19.182l-10.268-17.069L115.855,387.818z"/>
			<path fill="#313B57" d="M207.098,329.432c-0.219-19.033-13.24-27.949-28.262-28.541h-39.645l0.439,28.117l42.139,0.638
				l-55.823,49.618l10.268,17.069l-0.009-0.106l57.955-43.548C209.531,342.523,207.098,329.432,207.098,329.432z"/>
		</g>
		<g>
			<path fill="#B3DF00" d="M85.213,391.806L97.168,421.9c0.795,1.999,2.725,3.307,4.877,3.307l0,0c3.082,0,5.496-2.641,5.227-5.706
				l-1.701-19.185l-10.264-17.066L85.213,391.806z"/>
			<path fill="#313B57" d="M176.456,330.099L176.456,330.099c-1.073-14.994-13.239-28.616-28.257-29.209H108.55
				c0,0-49.438,0.221-49.438,0l0,0c-2.111,15.121,9.557,28.652,24.826,28.781l67.188,0.634l-55.818,52.946l10.264,17.063
				l-0.008-0.101l57.959-43.552C172.277,350.757,177.209,340.628,176.456,330.099z"/>
		</g>
		<path fill="#313B57" d="M572,289v5.643c0,4.021-0.123,8.357-1.076,12.357H448.45c-0.354,0-0.698-0.09-1.038-0.077
			c-0.699,0.025-1.372,0.029-2.057,0.102c-0.33,0.036-0.67,0.062-1.002,0.111c-0.332,0.05-0.66,0.1-0.99,0.172
			c-0.172,0.036-0.344,0.07-0.5,0.118c-0.148,0.023-0.308,0.07-0.467,0.12c-0.32,0.071-0.636,0.168-0.953,0.29
			c-0.316,0.098-0.623,0.219-0.941,0.354c0.145-2.335,0.732-4.863,1.749-7.065c3.153-6.847,10.882-12.125,18.427-12.125H572z"/>
		<g>
			<rect x="139.422" y="176.042" fill="#E6E7E8" width="345.676" height="158.013"/>
			<rect x="139.422" y="327.142" fill="#E6E7E8" width="5.768" height="117.432"/>
			<rect x="479.329" y="327.142" fill="#E6E7E8" width="5.769" height="117.432"/>
		</g>
		<g>
			<polygon fill="#F2F2F2" points="193.92,210.604 217.462,210.592 217.497,267.759 193.957,267.776 			"/>
			<g>
				<g>
					<rect x="197.293" y="213.964" fill="#D3D3D3" width="3.359" height="3.365"/>
					<rect x="197.3" y="227.418" fill="#D3D3D3" width="3.365" height="23.539"/>
					<rect x="197.292" y="220.691" fill="#D3D3D3" width="3.363" height="3.361"/>
					<rect x="197.315" y="261.044" fill="#D3D3D3" width="3.365" height="3.365"/>
					<rect x="197.312" y="254.319" fill="#D3D3D3" width="3.364" height="3.364"/>
				</g>
				<g>
					<rect x="204.017" y="213.961" fill="#D3D3D3" width="3.36" height="3.363"/>
					<rect x="204.021" y="227.413" fill="#D3D3D3" width="3.365" height="3.365"/>
					<rect x="204.027" y="234.139" fill="#D3D3D3" width="3.363" height="3.361"/>
					<rect x="204.031" y="240.864" fill="#D3D3D3" width="3.362" height="3.362"/>
					<rect x="204.019" y="220.687" fill="#D3D3D3" width="3.362" height="3.364"/>
					<rect x="204.033" y="247.59" fill="#D3D3D3" width="3.363" height="3.361"/>
					<rect x="204.046" y="261.041" fill="#D3D3D3" width="3.358" height="3.365"/>
					<rect x="204.038" y="254.315" fill="#D3D3D3" width="3.361" height="3.365"/>
				</g>
				<g>
					<rect x="210.741" y="213.959" fill="#D3D3D3" width="3.362" height="3.361"/>
					<rect x="210.749" y="227.409" fill="#D3D3D3" width="3.361" height="3.36"/>
					<rect x="210.751" y="234.133" fill="#D3D3D3" width="3.363" height="3.365"/>
					<rect x="210.756" y="240.86" fill="#D3D3D3" width="3.362" height="3.364"/>
					<rect x="210.745" y="220.682" fill="#D3D3D3" width="3.361" height="3.364"/>
					<rect x="210.76" y="247.585" fill="#D3D3D3" width="3.361" height="3.365"/>
					<rect x="210.77" y="261.037" fill="#D3D3D3" width="3.359" height="3.363"/>
					<rect x="210.767" y="254.31" fill="#D3D3D3" width="3.359" height="3.365"/>
				</g>
			</g>
		</g>
		<g>
			<path fill="#F2F2F2" d="M209.561,278.29h-15.024c-4.738,0-8.583,3.844-8.583,8.585c0,4.74,3.845,8.584,8.583,8.584h15.024
				c4.738,0,8.583-3.844,8.583-8.584C218.144,282.134,214.299,278.29,209.561,278.29z"/>
		</g>
		<g>
			<polygon fill="#F49211" points="427.794,210.624 401.873,210.624 397.793,175.105 431.873,175.105 			"/>
			<g>
				<path fill="#B3DF00" d="M402.066,174.888c0,0,6.606,7.193,2.469,12.708c-4.143,5.516-16.41,5.859-16.41,5.859
					s-3.626-11.552,1.076-17.816C393.346,170.125,402.066,174.888,402.066,174.888z"/>
				<path fill="#3D4457" d="M388.366,193.71c-0.163,0-0.321-0.052-0.459-0.156c-0.338-0.256-0.403-0.726-0.155-1.066l13.722-18.276
					c3.093-3.66,7.19-2.587,8.929-1.511c0.354,0.218,0.47,0.692,0.25,1.046c-0.221,0.362-0.697,0.47-1.052,0.249
					c-0.159-0.092-3.964-2.346-6.933,1.171l-13.694,18.235C388.824,193.6,388.593,193.71,388.366,193.71z"/>
				<g>
					<g>
						<path fill="#3D4457" d="M392.539,187.978c-0.016,0-0.027,0-0.037-0.003l-5.037-0.276c-0.422-0.021-0.74-0.383-0.717-0.803
							c0.016-0.421,0.381-0.745,0.801-0.724l5.031,0.282c0.422,0.02,0.744,0.382,0.721,0.799
							C393.283,187.665,392.941,187.978,392.539,187.978z"/>
						<path fill="#3D4457" d="M396.118,183.212c-0.02,0-0.044,0-0.064,0l-8.557-0.689c-0.422-0.035-0.737-0.403-0.702-0.817
							c0.034-0.419,0.397-0.74,0.824-0.702l8.561,0.68c0.418,0.038,0.731,0.405,0.697,0.825
							C396.846,182.911,396.514,183.212,396.118,183.212z"/>
						<path fill="#3D4457" d="M399.863,178.227c-0.02,0-0.041,0-0.056,0l-10.71-0.711c-0.42-0.035-0.738-0.398-0.713-0.815
							c0.029-0.42,0.399-0.749,0.812-0.711l10.714,0.717c0.416,0.022,0.735,0.387,0.712,0.809
							C400.598,177.919,400.256,178.227,399.863,178.227z"/>
					</g>
					<g>
						<path fill="#3D4457" d="M394.278,192.979c-0.321,0-0.618-0.201-0.725-0.525l-1.575-4.877c-0.131-0.405,0.086-0.834,0.49-0.962
							c0.405-0.13,0.832,0.093,0.961,0.49l1.574,4.88c0.128,0.403-0.087,0.827-0.49,0.958
							C394.438,192.97,394.355,192.979,394.278,192.979z"/>
						<path fill="#3D4457" d="M399.166,191.583c-0.314,0-0.611-0.198-0.725-0.516l-2.883-8.24c-0.137-0.399,0.068-0.833,0.473-0.975
							c0.396-0.135,0.83,0.074,0.965,0.469l2.888,8.242c0.134,0.399-0.069,0.837-0.468,0.971
							C399.328,191.567,399.248,191.583,399.166,191.583z"/>
						<path fill="#3D4457" d="M403.496,188.71c-0.318,0-0.62-0.205-0.725-0.525l-3.473-10.348c-0.133-0.404,0.08-0.84,0.482-0.972
							c0.395-0.135,0.83,0.085,0.959,0.483l3.48,10.351c0.134,0.399-0.084,0.836-0.48,0.967
							C403.658,188.693,403.575,188.71,403.496,188.71z"/>
					</g>
				</g>
			</g>
			<g>
				<path fill="#B3DF00" d="M425.963,174.951c0,0-6.777,7.382-2.533,13.041c4.252,5.656,16.838,6.008,16.838,6.008
					s3.717-11.851-1.103-18.28C434.912,170.063,425.963,174.951,425.963,174.951z"/>
				<path fill="#3D4457" d="M440.025,194.242c-0.233,0-0.463-0.103-0.612-0.305l-14.079-18.75c-3.056-3.611-6.945-1.267-7.109-1.165
					c-0.355,0.221-0.835,0.109-1.053-0.25c-0.223-0.358-0.105-0.824,0.25-1.049c1.775-1.102,5.967-2.195,9.109,1.512l14.104,18.786
					c0.251,0.337,0.181,0.813-0.154,1.068C440.346,194.19,440.182,194.242,440.025,194.242z"/>
				<g>
					<g>
						<path fill="#3D4457" d="M435.74,188.358c-0.402,0-0.742-0.312-0.761-0.716c-0.026-0.423,0.297-0.781,0.719-0.807l5.163-0.283
							c0.412-0.019,0.777,0.299,0.803,0.717c0.022,0.418-0.301,0.78-0.72,0.807l-5.167,0.281
							C435.768,188.358,435.752,188.358,435.74,188.358z"/>
						<path fill="#3D4457" d="M432.068,183.472c-0.396,0-0.725-0.302-0.762-0.702c-0.033-0.419,0.279-0.789,0.701-0.818l8.783-0.708
							c0.426-0.031,0.787,0.284,0.819,0.708c0.035,0.417-0.278,0.784-0.694,0.818l-8.787,0.702
							C432.11,183.472,432.088,183.472,432.068,183.472z"/>
						<path fill="#3D4457" d="M428.228,178.358c-0.399,0-0.731-0.312-0.758-0.711c-0.028-0.42,0.286-0.785,0.706-0.812l10.994-0.732
							c0.416-0.043,0.781,0.289,0.81,0.707c0.024,0.423-0.288,0.786-0.71,0.814l-10.992,0.734
							C428.262,178.358,428.244,178.358,428.228,178.358z"/>
					</g>
					<g>
						<path fill="#3D4457" d="M433.954,193.493c-0.078,0-0.154-0.008-0.232-0.03c-0.403-0.133-0.622-0.562-0.492-0.965l1.62-5.006
							c0.13-0.397,0.555-0.617,0.958-0.49c0.4,0.133,0.62,0.561,0.495,0.963l-1.621,5.002
							C434.574,193.29,434.273,193.493,433.954,193.493z"/>
						<path fill="#3D4457" d="M428.941,192.06c-0.08,0-0.17-0.016-0.25-0.04c-0.4-0.145-0.607-0.578-0.466-0.977l2.957-8.456
							c0.138-0.4,0.575-0.606,0.971-0.468c0.397,0.14,0.612,0.571,0.47,0.973l-2.961,8.458
							C429.551,191.864,429.257,192.06,428.941,192.06z"/>
						<path fill="#3D4457" d="M424.498,189.107c-0.079,0-0.162-0.01-0.244-0.033c-0.396-0.141-0.615-0.573-0.48-0.967l3.57-10.627
							c0.132-0.397,0.567-0.61,0.962-0.482c0.4,0.14,0.614,0.567,0.481,0.973l-3.564,10.621
							C425.115,188.908,424.816,189.107,424.498,189.107z"/>
					</g>
				</g>
			</g>
			<g>
				<path fill="#B3DF00" d="M418.176,168.405c0,0-5.846-6.427-2.139-11.31c3.704-4.889,14.605-5.135,14.605-5.135
					s3.174,10.289-1.031,15.833C425.91,172.679,418.176,168.405,418.176,168.405z"/>
				<path fill="#3D4457" d="M414.197,173.408c-0.17,0-0.333-0.051-0.475-0.166c-0.332-0.265-0.382-0.746-0.122-1.073l16.233-20.237
					c0.27-0.327,0.747-0.381,1.074-0.115c0.333,0.264,0.383,0.745,0.117,1.071l-16.234,20.231
					C414.643,173.308,414.42,173.408,414.197,173.408z"/>
				<g>
					<g>
						<path fill="#3D4457" d="M431.166,158.518c-0.017,0-0.031,0-0.047,0l-4.471-0.273c-0.418-0.021-0.738-0.383-0.713-0.801
							c0.021-0.422,0.41-0.744,0.805-0.718l4.471,0.268c0.422,0.029,0.744,0.39,0.717,0.808
							C431.898,158.209,431.566,158.518,431.166,158.518z"/>
						<path fill="#3D4457" d="M431.102,163.118c-0.025,0-0.043,0-0.061-0.005l-7.611-0.644c-0.422-0.04-0.733-0.411-0.694-0.825
							c0.032-0.419,0.392-0.736,0.821-0.7l7.609,0.649c0.42,0.04,0.73,0.407,0.698,0.825
							C431.826,162.816,431.496,163.118,431.102,163.118z"/>
						<path fill="#3D4457" d="M429.672,167.563c-0.024,0-0.044,0-0.061,0l-9.518-0.677c-0.42-0.032-0.738-0.397-0.711-0.817
							c0.031-0.422,0.404-0.731,0.817-0.708l9.524,0.684c0.418,0.029,0.73,0.391,0.702,0.814
							C430.395,167.263,430.064,167.563,429.672,167.563z"/>
					</g>
					<g>
						<path fill="#3D4457" d="M426.553,158.139c-0.322,0-0.621-0.209-0.729-0.533l-1.382-4.344c-0.127-0.403,0.098-0.83,0.5-0.956
							c0.395-0.131,0.827,0.093,0.956,0.495l1.387,4.343c0.126,0.398-0.1,0.832-0.499,0.959
							C426.705,158.122,426.629,158.139,426.553,158.139z"/>
						<path fill="#3D4457" d="M423.352,162.356c-0.314,0-0.612-0.193-0.726-0.516l-2.525-7.34c-0.138-0.395,0.075-0.83,0.474-0.969
							c0.397-0.133,0.828,0.073,0.967,0.476l2.529,7.342c0.139,0.395-0.074,0.829-0.471,0.966
							C423.516,162.344,423.435,162.356,423.352,162.356z"/>
						<path fill="#3D4457" d="M420,166.774c-0.317,0-0.617-0.206-0.723-0.529l-3.042-9.218c-0.133-0.397,0.085-0.826,0.487-0.964
							c0.393-0.135,0.83,0.088,0.959,0.49l3.051,9.22c0.129,0.396-0.092,0.829-0.49,0.962
							C420.164,166.763,420.08,166.774,420,166.774z"/>
					</g>
				</g>
			</g>
			<g>
				<path fill="#B3DF00" d="M410.909,168.688c0,0-8.556,6.209-13.778,0.869c-5.221-5.342-3.807-18.85-3.807-18.85
					s12.729-2.298,18.658,3.769C417.198,159.812,410.909,168.688,410.909,168.688z"/>
				<path fill="#3D4457" d="M415.083,174.576c-0.2,0-0.401-0.084-0.55-0.243l-21.262-22.765c-0.286-0.313-0.27-0.792,0.037-1.082
					c0.311-0.284,0.795-0.27,1.081,0.04l21.253,22.762c0.291,0.307,0.272,0.793-0.039,1.078
					C415.459,174.507,415.271,174.576,415.083,174.576z"/>
				<g>
					<g>
						<path fill="#3D4457" d="M399.279,157.22c-0.045,0-0.094-0.007-0.141-0.012c-0.414-0.074-0.688-0.473-0.611-0.889l1.021-5.479
							c0.077-0.417,0.47-0.688,0.89-0.612c0.415,0.077,0.686,0.479,0.613,0.891l-1.021,5.48
							C399.96,156.961,399.639,157.22,399.279,157.22z"/>
						<path fill="#3D4457" d="M403.792,161.834c-0.052,0-0.106-0.006-0.16-0.011c-0.411-0.091-0.676-0.495-0.587-0.911l1.961-9.286
							c0.091-0.416,0.485-0.677,0.907-0.59c0.407,0.085,0.676,0.489,0.587,0.901l-1.965,9.296
							C404.459,161.59,404.141,161.834,403.792,161.834z"/>
						<path fill="#3D4457" d="M408.506,166.659c-0.049,0-0.097-0.003-0.146-0.011c-0.416-0.084-0.682-0.483-0.604-0.899
							l2.309-11.644c0.078-0.412,0.488-0.683,0.893-0.601c0.418,0.083,0.682,0.482,0.603,0.894l-2.306,11.648
							C409.184,166.406,408.868,166.659,408.506,166.659z"/>
					</g>
					<g>
						<path fill="#3D4457" d="M393.743,158.402c-0.362,0-0.68-0.255-0.747-0.62c-0.083-0.414,0.191-0.816,0.607-0.895l5.373-1.022
							c0.417-0.079,0.816,0.193,0.894,0.607c0.079,0.414-0.192,0.812-0.606,0.891l-5.379,1.023
							C393.838,158.398,393.791,158.402,393.743,158.402z"/>
						<path fill="#3D4457" d="M394.51,163.961c-0.349,0-0.667-0.238-0.746-0.602c-0.088-0.41,0.175-0.817,0.589-0.904l9.12-1.973
							c0.414-0.087,0.816,0.176,0.902,0.588c0.093,0.408-0.17,0.819-0.583,0.902l-9.12,1.979
							C394.617,163.958,394.564,163.961,394.51,163.961z"/>
						<path fill="#3D4457" d="M396.918,169.131c-0.355,0-0.675-0.255-0.747-0.611c-0.08-0.417,0.183-0.818,0.595-0.903l11.432-2.31
							c0.42-0.081,0.816,0.184,0.904,0.599c0.078,0.417-0.188,0.816-0.598,0.894l-11.432,2.314
							C397.018,169.12,396.97,169.131,396.918,169.131z"/>
					</g>
				</g>
			</g>
			<g>
				<path fill="#B3DF00" d="M413.222,171.724c0,0,7.732,0.111,8.549,5.604c0.823,5.493-5.79,12.885-5.79,12.885
					s-8.543-4.286-9.475-10.517C405.684,174.203,413.222,171.724,413.222,171.724z"/>
				<path fill="#3D4457" d="M415.818,190.552c-0.369,0-0.693-0.27-0.755-0.649l-2.713-18.198c-0.058-0.418,0.226-0.806,0.643-0.867
					c0.418-0.06,0.806,0.221,0.871,0.642l2.71,18.195c0.062,0.418-0.224,0.805-0.641,0.872
					C415.895,190.552,415.858,190.552,415.818,190.552z"/>
				<g>
					<g>
						<path fill="#3D4457" d="M411.949,187.719c-0.202,0-0.4-0.076-0.559-0.238c-0.283-0.303-0.271-0.786,0.033-1.075l2.949-2.801
							c0.305-0.292,0.789-0.28,1.078,0.029c0.292,0.303,0.274,0.786-0.023,1.075l-2.953,2.802
							C412.324,187.651,412.135,187.719,411.949,187.719z"/>
						<path fill="#3D4457" d="M409.056,184.824c-0.207,0-0.417-0.09-0.564-0.252c-0.288-0.31-0.257-0.796,0.053-1.08l5.136-4.648
							c0.311-0.28,0.794-0.252,1.077,0.057c0.282,0.313,0.257,0.796-0.053,1.075l-5.138,4.648
							C409.422,184.754,409.236,184.824,409.056,184.824z"/>
						<path fill="#3D4457" d="M407.102,181.107c-0.204,0-0.408-0.082-0.557-0.241c-0.287-0.313-0.268-0.793,0.037-1.082l6.352-5.894
							c0.307-0.289,0.793-0.268,1.074,0.039c0.287,0.309,0.276,0.791-0.039,1.081l-6.346,5.896
							C407.479,181.038,407.291,181.107,407.102,181.107z"/>
					</g>
					<g>
						<path fill="#3D4457" d="M418.691,186.677c-0.115,0-0.227-0.026-0.338-0.077l-3.627-1.78c-0.379-0.184-0.537-0.646-0.35-1.02
							c0.186-0.382,0.641-0.534,1.016-0.349l3.639,1.778c0.379,0.188,0.535,0.644,0.347,1.022
							C419.245,186.523,418.975,186.677,418.691,186.677z"/>
						<path fill="#3D4457" d="M420.61,183.03c-0.103,0-0.214-0.019-0.315-0.066l-6.258-2.881c-0.385-0.176-0.557-0.626-0.375-1.013
							c0.171-0.386,0.625-0.553,1.008-0.372l6.262,2.876c0.387,0.175,0.553,0.626,0.371,1.013
							C421.176,182.865,420.901,183.03,420.61,183.03z"/>
						<path fill="#3D4457" d="M421.39,178.89c-0.108,0-0.22-0.025-0.327-0.074l-7.777-3.702c-0.38-0.182-0.545-0.635-0.362-1.016
							c0.181-0.38,0.634-0.543,1.015-0.362l7.781,3.703c0.383,0.182,0.539,0.64,0.359,1.018
							C421.947,178.731,421.677,178.89,421.39,178.89z"/>
					</g>
				</g>
			</g>
		</g>
		<g>
			<polygon fill="#F49211" points="253.592,298.189 237.906,298.189 235.273,271.132 256.222,271.132 			"/>
			<polygon fill="#313B57" points="254.625,267.486 254.625,262.737 236.869,262.737 236.869,267.486 233.678,267.486 
				233.678,272.857 257.819,272.857 257.819,267.486 			"/>
			<polygon fill="#FFFFFF" points="256.072,290.896 235.43,290.896 234.158,278.375 257.339,278.375 			"/>
		</g>
		<g>
			<path fill="#FFFFFF" d="M243.567,206.567v24.956c0,1.204-0.794,2.264-1.944,2.61l-13.929,4.18l15.873,11.11l11.644-3.491
				c2.51-0.755,4.225-3.064,4.225-5.684v-24.157L243.567,206.567z"/>
			<path fill="#D3D3D3" d="M260.222,229.953c-0.116,0-0.235-0.03-0.343-0.093l-19.047-11.11c-0.322-0.19-0.432-0.605-0.244-0.929
				c0.189-0.323,0.604-0.433,0.928-0.244l19.047,11.111c0.325,0.188,0.435,0.604,0.246,0.928
				C260.68,229.832,260.454,229.953,260.222,229.953z"/>
			<g>
				<path fill="#313B57" d="M298.558,174.277l-80.14-45.795c-2.231-1.275-5.011,0.337-5.011,2.907v6.928v50.792l88.886,50.791
					v-50.791v-8.399C302.293,178.05,300.871,175.595,298.558,174.277z"/>
				<path fill="#FFFFFF" d="M213.407,189.109v8.399c0,2.657,1.425,5.111,3.733,6.43l80.141,45.795
					c2.232,1.276,5.012-0.336,5.012-2.908v-6.927L213.407,189.109z"/>
			</g>
		</g>
		<g>
			<rect x="384.272" y="224.417" fill="#FFFFFF" width="49.249" height="65.185"/>
			<path fill="#FFFFFF" d="M360.766,195.685c-0.86-1.051-2.565-0.443-2.565,0.917v57.746c0,2.188,0.757,4.31,2.144,6.003
				l23.929,29.251v-65.185L360.766,195.685z"/>
			<g>
				<g>
					<rect x="402.973" y="280.463" fill="#D3D3D3" width="3.596" height="3.587"/>
					<rect x="402.973" y="244.569" fill="#D3D3D3" width="3.596" height="25.124"/>
					<rect x="402.973" y="273.279" fill="#D3D3D3" width="3.596" height="3.591"/>
					<rect x="402.973" y="230.211" fill="#D3D3D3" width="3.596" height="3.588"/>
					<rect x="402.973" y="237.388" fill="#D3D3D3" width="3.596" height="3.59"/>
				</g>
				<g>
					<rect x="395.801" y="280.463" fill="#D3D3D3" width="3.587" height="3.587"/>
					<rect x="395.801" y="266.1" fill="#D3D3D3" width="3.587" height="3.592"/>
					<rect x="395.801" y="258.924" fill="#D3D3D3" width="3.587" height="3.591"/>
					<rect x="395.801" y="251.747" fill="#D3D3D3" width="3.587" height="3.59"/>
					<rect x="395.801" y="273.279" fill="#D3D3D3" width="3.587" height="3.591"/>
					<rect x="395.801" y="244.568" fill="#D3D3D3" width="3.587" height="3.585"/>
					<rect x="395.801" y="230.211" fill="#D3D3D3" width="3.587" height="3.588"/>
					<rect x="395.801" y="237.388" fill="#D3D3D3" width="3.587" height="3.59"/>
				</g>
				<g>
					<rect x="388.617" y="280.463" fill="#D3D3D3" width="3.592" height="3.587"/>
					<rect x="388.617" y="266.1" fill="#D3D3D3" width="3.592" height="3.592"/>
					<rect x="388.617" y="258.924" fill="#D3D3D3" width="3.592" height="3.591"/>
					<rect x="388.617" y="251.747" fill="#D3D3D3" width="3.592" height="3.59"/>
					<rect x="388.617" y="273.279" fill="#D3D3D3" width="3.592" height="3.591"/>
					<rect x="388.617" y="244.568" fill="#D3D3D3" width="3.592" height="3.585"/>
					<rect x="388.617" y="230.211" fill="#D3D3D3" width="3.592" height="3.588"/>
					<rect x="388.617" y="237.388" fill="#D3D3D3" width="3.592" height="3.59"/>
				</g>
			</g>
			<rect x="413.24" y="244.695" fill="#D3D3D3" width="14.488" height="18.829"/>
			<polygon fill="#313B57" points="361.094,199.791 361.094,254.835 382.826,282.356 382.826,227.314 			"/>
		</g>
		<g>
			<g>
				<polygon fill="#313B57" points="442.561,309.937 438.488,307.9 438.488,311.972 				"/>
				<rect x="404.558" y="307.9" fill="#ADCB00" width="33.93" height="4.072"/>
			</g>
			<path fill="#313B57" d="M420.168,306.542c0,0.373-0.307,0.678-0.68,0.678h-10.18v4.751c0,0.373-0.303,0.678-0.676,0.677
				c-0.376,0.001-0.681-0.304-0.684-0.677v-5.429c0.003-0.373,0.308-0.679,0.684-0.679h10.855
				C419.863,305.863,420.168,306.17,420.168,306.542z"/>
		</g>
		<g>
			<g>
				<rect x="306.394" y="268.488" fill="#313B57" width="38.784" height="50.481"/>
				<rect x="309.793" y="309.998" fill="#FFFFFF" width="35.385" height="6.86"/>
				<g>
					<path fill="#37A2D4" d="M345.178,312.77h-35.324c-0.342,0-0.616-0.277-0.616-0.616c0-0.341,0.274-0.616,0.616-0.616h35.324
						c0.34,0,0.615,0.275,0.615,0.616C345.793,312.493,345.518,312.77,345.178,312.77z"/>
					<path fill="#37A2D4" d="M345.178,315.234h-35.324c-0.342,0-0.616-0.274-0.616-0.616c0-0.338,0.274-0.614,0.616-0.614h35.324
						c0.34,0,0.615,0.277,0.615,0.614C345.793,314.959,345.518,315.234,345.178,315.234z"/>
				</g>
			</g>
			<g>
				<rect x="306.394" y="263.564" fill="#D3D3D3" width="31.397" height="42.785"/>
				<rect x="309.793" y="297.379" fill="#FFFFFF" width="27.998" height="6.859"/>
				<g>
					<path fill="#37A2D4" d="M337.791,300.15h-27.938c-0.342,0-0.616-0.274-0.616-0.615s0.274-0.615,0.616-0.615h27.938
						c0.34,0,0.615,0.274,0.615,0.615S338.131,300.15,337.791,300.15z"/>
					<path fill="#37A2D4" d="M337.791,302.615h-27.938c-0.342,0-0.616-0.274-0.616-0.614c0-0.341,0.274-0.616,0.616-0.616h27.938
						c0.34,0,0.615,0.275,0.615,0.616C338.406,302.34,338.131,302.615,337.791,302.615z"/>
				</g>
			</g>
		</g>
		<g>
			<g>
				<path fill="#FFBE99" d="M115.392,153.747c-2.649-6.356-6.79-9.234-14.803-9.775l0,0c-9.37-0.634-17.319,6.79-17.319,16.185
					l0.438,41.905H106.5l-0.439-12.036c6.221,0,11.838-4.913,11.463-11.123v-4.769h4.771L115.392,153.747z"/>
				<path fill="#313B57" d="M106.387,161.07c1.314,0,2.386,1.067,2.386,2.384c0,1.321-1.071,2.387-2.386,2.387
					c-1.318,0-2.391-1.067-2.391-2.387C103.996,162.137,105.068,161.07,106.387,161.07z"/>
				<path fill="#313B57" d="M107.006,141.618c-3.037-0.844-17.836-2.103-22.453,6.969c-3.651,7.169-1.229,24.565-1.229,24.565
					s3.772-1.685,7.377-5.144l-1.771-2.237c-1.373-1.734-0.982-4.291,0.918-5.519c1.654-1.073,3.875-0.587,5.101,0.962v10.928h4.43
					v-12.6c0-3.474-1.581-6.758-4.285-8.934l0,0l16.005-1.359c2.893-0.418,2.764-3.871,0.912-4.875
					C112.01,144.375,110.984,142.724,107.006,141.618z"/>
				<path fill="#313B57" d="M108.654,193.245l-2.521-0.073v-9.69c0-4.665,3.627-8.525,8.283-8.815l3.114-0.195l0.188,9.797
					C117.818,189.302,113.686,193.391,108.654,193.245z"/>
				<path fill="#313B57" d="M111.206,141.509c2.073,0,3.764,1.681,3.764,3.759c0,2.078-1.69,3.762-3.764,3.762
					c-2.075,0-3.763-1.684-3.763-3.762C107.443,143.19,109.131,141.509,111.206,141.509z"/>
				<path fill="#313B57" d="M106.227,136.419c2.082,0,3.763,1.685,3.763,3.761c0,2.076-1.681,3.761-3.763,3.761
					c-2.073,0-3.759-1.685-3.759-3.761C102.468,138.104,104.153,136.419,106.227,136.419z"/>
				<path fill="#313B57" d="M99.149,135.867c2.079,0,3.763,1.679,3.763,3.758c0,2.079-1.684,3.763-3.763,3.763
					c-2.075,0-3.757-1.685-3.757-3.763C95.393,137.547,97.074,135.867,99.149,135.867z"/>
				<path fill="#313B57" d="M92.072,137.526c2.076,0,3.763,1.682,3.763,3.759c0,2.077-1.687,3.762-3.763,3.762
					c-2.075,0-3.759-1.686-3.759-3.762C88.313,139.208,89.997,137.526,92.072,137.526z"/>
				<path fill="#313B57" d="M86.101,140.954c2.075,0,3.757,1.683,3.757,3.761c0,2.077-1.682,3.759-3.757,3.759
					c-2.077,0-3.765-1.682-3.765-3.759C82.336,142.638,84.023,140.954,86.101,140.954z"/>
				<path fill="#313B57" d="M82.118,146.595c2.077,0,3.759,1.683,3.759,3.759c0,2.078-1.682,3.762-3.759,3.762
					s-3.763-1.684-3.763-3.762C78.355,148.278,80.041,146.595,82.118,146.595z"/>
				<path fill="#313B57" d="M81.342,153.01c2.079,0,3.764,1.683,3.764,3.76c0,2.079-1.685,3.76-3.764,3.76
					c-2.074,0-3.762-1.681-3.762-3.76C77.58,154.693,79.268,153.01,81.342,153.01z"/>
				<path fill="#313B57" d="M81.789,159.978c2.076,0,3.755,1.684,3.755,3.76c0,2.075-1.679,3.765-3.755,3.765
					c-2.084,0-3.764-1.69-3.764-3.765C78.025,161.662,79.705,159.978,81.789,159.978z"/>
				<path fill="#FFD294" d="M113.809,181.858c-1.35,0-2.66-0.431-3.763-1.249c-0.29-0.219-0.353-0.637-0.135-0.93
					c0.22-0.292,0.634-0.354,0.928-0.136c1.075,0.797,2.393,1.126,3.714,0.931l0.959-0.14c0.368-0.052,0.699,0.197,0.754,0.558
					c0.052,0.365-0.198,0.702-0.561,0.754l-0.961,0.143C114.43,181.835,114.12,181.858,113.809,181.858z"/>
			</g>
			<g>
				<path fill="#F2F2F2" d="M90.08,155.555c4.154,0,7.523,3.366,7.523,7.522c0,4.151-3.369,7.519-7.523,7.519
					c-4.155,0-7.524-3.368-7.524-7.519C82.556,158.921,85.925,155.555,90.08,155.555z"/>
				<path fill="#E35B40" d="M90.08,166.723c-2.012,0-3.65-1.634-3.65-3.646c0-2.013,1.639-3.651,3.65-3.651s3.649,1.638,3.649,3.651
					C93.729,165.09,92.092,166.723,90.08,166.723z M90.08,160.755c-1.279,0-2.322,1.04-2.322,2.322c0,1.278,1.043,2.321,2.322,2.321
					c1.277,0,2.323-1.042,2.323-2.321C92.403,161.795,91.357,160.755,90.08,160.755z"/>
				<rect x="87.168" y="135.718" fill="#F2F2F2" width="5.826" height="22.342"/>
			</g>
		</g>
		<path fill="#B3DF00" d="M48.932,186.964c0,0-13.271,30.085-2.209,36.279c5.362,3.004,15.928-6.194,20.793-12.387l-8.404,90.034
			h49.438l11.616-101.207L48.932,186.964z"/>
		<g>
			<g>
				<path fill="#B3DF00" d="M134.317,270.148l-37.381-57.073l-17.919,11.278l20.607,35.941
					c10.068,17.798,29.062,28.675,49.506,28.349l35.626-0.565v-13.659L134.317,270.148z"/>
				<polygon fill="#FFBE99" points="203.566,275.675 194.508,271.749 184.757,274.418 184.757,288.078 194.495,284.634 
					203.566,287.842 				"/>
			</g>
			<path fill="#FFFFFF" d="M112.642,277.333c-0.175,0-0.353-0.069-0.483-0.208c-15.158-16.15-26.873-41.07-26.994-41.322
				c-0.156-0.328-0.014-0.724,0.324-0.879c0.33-0.155,0.725-0.011,0.879,0.32c0.115,0.249,11.746,24.979,26.758,40.969
				c0.25,0.27,0.237,0.69-0.03,0.941C112.967,277.275,112.807,277.333,112.642,277.333z"/>
		</g>
		<g>
			<path fill="#B3DF00" d="M139.406,232.535l-25.658-29.643l-18.137,10.174l4.014,6.743c10.068,17.796,29.062,28.67,49.506,28.346
				l35.626-0.564v-12.993L139.406,232.535z"/>
			<polygon fill="#FFBE99" points="204.889,235.192 194.948,230.889 184.757,234.598 184.757,247.591 195.162,243.495 
				204.889,247.354 			"/>
		</g>
		<path fill="#FFBE99" d="M562.176,197.954c-7.594,5.669-11.539,14.604-12.387,26.155l-3.348,42.927l-77.768,19.883l2.729,12.366
			l77.273-17.06c12.055-2.66,21.298-12.367,23.366-24.539l5.196-30.529c0.709-4.16,0.875-8.391,0.498-12.594l-0.166-1.862
			C576.791,204.056,570.43,198.219,562.176,197.954z"/>
		<g>
			<path fill="#FFBE99" d="M516.922,197.926c-15.752-0.177-27.209,7.294-33.127,25.556l-7.314,21.468l-39.242,1.963v12.644h37.606
				c11.781,0,22.196-7.672,25.689-18.928l10.31-33.221h2.781L516.922,197.926z"/>
			<polygon fill="#FFBE99" points="437.238,259.557 426.176,256.397 413.535,259.557 413.535,246.913 426.176,243.755 
				437.238,246.913 			"/>
		</g>
		<polygon fill="#FFBE99" points="474.93,298.372 462.912,297.636 450.703,303.721 447.848,290.796 460.06,284.713 472.08,285.448 
					"/>
	</g>
</g>
</svg>
